<?xml version="1.0" encoding="UTF-8"?>
<svg viewBox="0 0 979.68176 1178.7495" xmlns="http://www.w3.org/2000/svg">
 <g transform="translate(965.09 481.16)">
  <path transform="matrix(18.312 0 0 18.312 396.28 -309.56)" d="m-22.855 28.257c0 13.668-11.08 24.749-24.749 24.749s-24.749-11.08-24.749-24.749 11.08-24.749 24.749-24.749 24.749 11.08 24.749 24.749z" fill="none" stroke="#000" stroke-width="4"/>
  <g transform="matrix(18.312 0 0 18.312 396.28 -17699)">
   <path transform="translate(0 949.6)" d="m-51.392-9.371h7.3236a1.2627 1.2627 0 0 1 1.2627 1.2627v5.8084a1.2627 1.2627 0 0 1 -1.2627 1.2627h-7.3236a1.2627 1.2627 0 0 1 -1.2627 -1.2627v-5.8084a1.2627 1.2627 0 0 1 1.2627 -1.2627"/>
   <path transform="translate(0 949.6)" d="m-49.624-1.2267h3.7881v2.9042h-3.7881z"/>
  </g>
  <g transform="matrix(9.1687 -9.1687 9.1687 9.1687 -9079.2 -9297.1)">
   <path transform="translate(0 949.6)" d="m-51.392-9.371h7.3236a1.2627 1.2627 0 0 1 1.2627 1.2627v5.8084a1.2627 1.2627 0 0 1 -1.2627 1.2627h-7.3236a1.2627 1.2627 0 0 1 -1.2627 -1.2627v-5.8084a1.2627 1.2627 0 0 1 1.2627 -1.2627"/>
   <path transform="translate(0 949.6)" d="m-49.624-1.2267h3.7881v2.9042h-3.7881z"/>
  </g>
  <path transform="matrix(1.4389 0 0 1.4389 -406.93 167.22)" d="m-22.855 28.257a24.749 24.749 0 1 1 -49.497 0 24.749 24.749 0 1 1 49.497 0z" fill="none" stroke="#000" stroke-width="25.453"/>
  <path d="m-488.89 156.58 6.9578-253.53 6.7921-13.013 6.5712 13.013 6.5002 253.53z" stroke="#000" stroke-width="14.136"/>
  <path d="m-475.31-186.47v44.106" fill="none" stroke="#000" stroke-width="9.1559"/>
  <path d="m-81.601 207.24h-44.105" fill="none" stroke="#000" stroke-width="9.1559"/>
  <path d="m-475.31 600.95v-44.105" fill="none" stroke="#000" stroke-width="9.1559"/>
  <path d="m-869.03 207.24h44.105" fill="none" stroke="#000" stroke-width="9.1559"/>
  <path d="m-278.46-133.72-22.053 38.196" fill="none" stroke="#000" stroke-width="9.1559"/>
  <path d="m-134.35 10.384-38.196 22.053" fill="none" stroke="#000" stroke-width="9.1559"/>
  <path d="m-134.35 404.1-38.196-22.053" fill="none" stroke="#000" stroke-width="9.1559"/>
  <path d="m-278.46 548.21-22.053-38.197" fill="none" stroke="#000" stroke-width="9.1559"/>
  <path d="m-672.17 548.21 22.053-38.197" fill="none" stroke="#000" stroke-width="9.1559"/>
  <path d="m-816.28 404.1 38.197-22.053" fill="none" stroke="#000" stroke-width="9.1559"/>
  <path d="m-816.28 10.384 38.196 22.053" fill="none" stroke="#000" stroke-width="9.1559"/>
  <path d="m-672.17-133.72 22.053 38.197" fill="none" stroke="#000" stroke-width="9.1559"/>
  <path d="m-672.17-133.72 22.053 38.197" fill="none" stroke="#000" stroke-width="9.1559"/>
 </g>
</svg>
