<?xml version="1.0" encoding="iso-8859-1"?>
<!-- Generator: Adobe Illustrator 19.0.0, SVG Export Plug-In . SVG Version: 6.00 Build 0)  -->
<svg version="1.1" id="Capa_1" xmlns="http://www.w3.org/2000/svg" xmlns:xlink="http://www.w3.org/1999/xlink" x="0px" y="0px"
	 viewBox="0 0 508.333 508.333" style="enable-background:new 0 0 508.333 508.333;" xml:space="preserve">
<path d="M492.455,166.437l-204.721-70.19c-21.646-7.421-45.489-7.421-67.135,0l-204.721,70.19C6.232,169.744,0,178.47,0,188.667
	s6.233,18.922,15.878,22.229l94.789,32.499v70.757c0,12.917,14.921,22.706,45.616,29.928c26.233,6.172,60.996,9.572,97.884,9.572
	s71.651-3.399,97.884-9.572c13.029-3.066,23.206-6.596,30.616-10.63v14.436c-9.29,3.138-16,11.93-16,22.266v40
	c0,4.142,3.358,7.5,7.5,7.5h32c4.142,0,7.5-3.358,7.5-7.5v-40c0-10.336-6.71-19.128-16-22.266V243.395l94.788-32.499
	c9.646-3.307,15.879-12.033,15.879-22.229S502.101,169.744,492.455,166.437z M348.615,329.479
	c-25.141,5.916-58.683,9.173-94.449,9.173s-69.308-3.258-94.449-9.173c-27.992-6.586-34.051-13.875-34.051-15.327v-12.701
	c7.41,4.034,17.586,7.564,30.616,10.63c26.233,6.172,60.996,9.572,97.884,9.572s71.651-3.399,97.884-9.572
	c13.029-3.066,23.206-6.596,30.616-10.63v12.701C382.667,315.604,376.607,322.893,348.615,329.479z M398.667,402.652h-17v-32.5
	c0-4.687,3.813-8.5,8.5-8.5s8.5,3.813,8.5,8.5V402.652z M382.667,282.152c0,1.451-6.059,8.741-34.051,15.327
	c-25.141,5.916-58.683,9.173-94.449,9.173s-69.308-3.258-94.449-9.173c-27.992-6.586-34.051-13.875-34.051-15.327v-33.614
	l94.932,32.548c10.823,3.711,22.196,5.566,33.568,5.566s22.745-1.855,33.568-5.566l94.932-32.548V282.152z M487.59,196.707
	l-89.912,30.827c-0.343-0.182-0.699-0.347-1.078-0.477l-103.867-35.612c0.606-1.692,0.935-3.46,0.935-5.293
	c0-13.397-16.981-23.5-39.5-23.5s-39.5,10.103-39.5,23.5s16.981,23.5,39.5,23.5c10.979,0,20.633-2.406,27.653-6.42
	c0.574,0.408,1.213,0.745,1.914,0.986l90.974,31.191l-91.839,31.487c-18.509,6.347-38.896,6.347-57.405,0l-204.721-70.19
	c-5.329-1.827-5.743-6.616-5.743-8.04s0.414-6.214,5.743-8.041l204.72-70.19c9.256-3.173,18.978-4.759,28.703-4.759
	c9.723,0,19.449,1.587,28.703,4.759l204.721,70.19c5.33,1.827,5.744,6.617,5.744,8.041S492.919,194.88,487.59,196.707z
	 M278.667,186.152c0,2.185-8.424,8.5-24.5,8.5s-24.5-6.315-24.5-8.5s8.424-8.5,24.5-8.5S278.667,183.968,278.667,186.152z"/>
<g>
</g>
<g>
</g>
<g>
</g>
<g>
</g>
<g>
</g>
<g>
</g>
<g>
</g>
<g>
</g>
<g>
</g>
<g>
</g>
<g>
</g>
<g>
</g>
<g>
</g>
<g>
</g>
<g>
</g>
</svg>
