<?xml version="1.0" encoding="utf-8"?>
<!-- Generator: Adobe Illustrator 19.2.0, SVG Export Plug-In . SVG Version: 6.00 Build 0)  -->
<svg version="1.1" id="Layer_1" xmlns="http://www.w3.org/2000/svg" xmlns:xlink="http://www.w3.org/1999/xlink" x="0px" y="0px"
	 viewBox="0 0 1920 1080" style="enable-background:new 0 0 1920 1080;" xml:space="preserve">
<style type="text/css">
	.st0{fill:#E6E6E6;}
	.st1{fill:#333333;}
	.st2{fill:#AA6F3D;}
	.st3{fill:#F8C09D;}
	.st4{fill:#F6AE8D;}
	.st5{fill:#774829;}
	.st6{fill:#A8C4CC;}
	.st7{fill:#FFFFFF;}
	.st8{fill:#EF937E;}
	.st9{opacity:0.81;fill:#DAEEF2;}
	.st10{opacity:0.81;fill:#FFFFFF;}
	.st11{fill:none;stroke:#333333;stroke-width:3;stroke-miterlimit:10;}
	.st12{fill:#D13924;}
	.st13{fill:#E8533A;}
	.st14{fill:#CC7C40;}
	.st15{fill:#4C2A0F;}
	.st16{fill:none;stroke:#DAEEF2;stroke-width:10;stroke-miterlimit:10;}
	.st17{fill:#12A88B;}
	.st18{fill:#998675;}
	.st19{fill:#367FA8;}
	.st20{fill:#381D0B;}
	.st21{fill:#F2F2F2;}
	.st22{fill:#CC481F;}
	.st23{fill:#F15A24;}
	.st24{fill:#736357;}
	.st25{fill:#E2B374;}
	.st26{fill:#F9CB93;}
	.st27{fill:#C1272D;}
	.st28{fill:#AD1F2A;}
	.st29{fill:#FBB03B;}
	.st30{fill:#8C6239;}
	.st31{fill:#7F532F;}
	.st32{fill:#603813;}
	.st33{fill:#0071BC;}
	.st34{fill:#04679E;}
	.st35{fill:#2E3192;}
	.st36{fill:#2DAFD3;}
	.st37{fill:#229EBA;}
	.st38{fill:#0F6193;}
	.st39{fill:#39B54A;}
	.st40{fill:#009245;}
	.st41{fill:none;stroke:#754C24;stroke-width:3.5209;stroke-miterlimit:10;}
	.st42{fill:#AD212B;}
	.st43{fill:#D84853;}
	.st44{fill:#CCCCCC;}
	.st45{fill:#F7931E;}
</style>
<g>
	<g>
		<rect x="897.5" y="687.9" class="st0" width="23.1" height="127"/>
		<path class="st1" d="M924.2,814.8h-30.3c-4.7,0-8.6-3.8-8.6-8.6l0,0c0-4.7,3.8-8.6,8.6-8.6h30.3c4.7,0,8.6,3.8,8.6,8.6l0,0
			C932.8,811,929,814.8,924.2,814.8z"/>
		<path class="st0" d="M826.5,879.5h19.2l9.8-18.1c2.5-4.6,6-8.6,10.2-11.7l47.9-34.8h-28.3l-36,29.4c-3.3,2.7-6.2,6-8.3,9.8
			L826.5,879.5z"/>
		<path class="st0" d="M991.3,879.5h-19.2l-9.8-18.1c-2.5-4.6-6-8.6-10.2-11.7l-47.9-34.8h28.3l36,29.4c3.3,2.7,6.2,6,8.3,9.8
			L991.3,879.5z"/>
		<circle class="st1" cx="836.6" cy="879.5" r="15.2"/>
		<circle class="st1" cx="982.1" cy="879.5" r="15.2"/>
		<rect x="899.1" y="814.8" class="st0" width="19.1" height="63"/>
		<circle class="st1" cx="909.1" cy="879.5" r="15.2"/>
	</g>
	<g>
		<path class="st2" d="M948.2,334.8L948.2,334.8c1.2,10.1,10.4,17.3,20.6,16.1l136.3-16.7c10.1-1.2,17.3-10.4,16.1-20.6v0
			c-1.2-10.1-10.4-17.3-20.6-16.1l-136.3,16.7C954.2,315.5,947,324.7,948.2,334.8z"/>
		<path class="st2" d="M982.1,322.6L982.1,322.6c-5.4-8.6-16.8-11.2-25.4-5.8l-116.4,73c-8.6,5.4-11.2,16.8-5.8,25.4l0,0
			c5.4,8.6,16.8,11.2,25.4,5.8l116.4-73C984.9,342.6,987.5,331.2,982.1,322.6z"/>
		<g>
			<path class="st3" d="M856.9,432l-11.2,7.6L821,403.7c-2.6-3.8-1.7-9,2.1-11.7l9.4-6.5c4.1-2.8,9.6-1.8,12.4,2.3l15.8,22.9
				C865.5,417.7,863.8,427.2,856.9,432z"/>
			<path class="st3" d="M830,395.6L830,395.6c2.1,3.1,1.4,7.3-1.7,9.5l-13,9c-3.1,2.1-7.3,1.4-9.5-1.7l0,0c-2.1-3.1-1.4-7.3,1.7-9.5
				l13-9C823.6,391.7,827.9,392.5,830,395.6z"/>
			<path class="st4" d="M836,406.9l0.3,0.4c2.2,3.2,1.4,7.6-1.8,9.8l-12.4,8.6c-3.2,2.2-7.5,1.3-9.7-1.9l-0.3-0.4
				c-2.2-3.2-1.5-7.5,1.7-9.7l12.5-8.6C829.5,402.8,833.8,403.7,836,406.9z"/>
			<path class="st3" d="M835.4,408.4L835.4,408.4c2.1,3.1,1.4,7.3-1.7,9.5l-13,9c-3.1,2.1-7.3,1.4-9.5-1.7v0
				c-2.1-3.1-1.4-7.3,1.7-9.5l13-9C829,404.5,833.3,405.3,835.4,408.4z"/>
			<path class="st4" d="M850,428.1L850,428.1c2.1,3.1,1.3,7.3-1.7,9.4l-12,8.3l-7.7-11.2l12-8.3C843.6,424.3,847.9,425.1,850,428.1z
				"/>
			<path class="st3" d="M849.2,429.5L849.2,429.5c2,2.8,1.2,6.7-1.6,8.7l-11.6,8c-2.8,2-6.7,1.2-8.7-1.6l0,0c-2-2.8-1.2-6.7,1.6-8.7
				l11.6-8C843.4,426,847.3,426.7,849.2,429.5z"/>
			<path class="st4" d="M844.7,417.4l0.4,0.6c2.2,3.2,1.4,7.7-1.8,9.9l-12.4,8.6c-3.2,2.2-7.7,1.4-9.9-1.8l-0.4-0.6
				c-2.2-3.2-1.4-7.7,1.8-9.9l12.4-8.6C838,413.3,842.4,414.2,844.7,417.4z"/>
			<path class="st3" d="M843.7,418.5L843.7,418.5c2,2.8,1.2,6.7-1.6,8.7l-13.9,9.6c-2.8,2-6.7,1.2-8.7-1.6h0c-2-2.8-1.2-6.7,1.6-8.7
				l13.9-9.6C837.9,415,841.7,415.7,843.7,418.5z"/>
			<path class="st4" d="M844.9,391.5L844.9,391.5c0.6,1.4-0.1,4.3-2.3,5.5l-14,6.8c-3.4,1.7-7.4,0.3-9.1-3.1l0,0
				c-1.7-3.4-0.3-7.4,3.1-9.1l14-6.8C840,383.2,843.3,388.2,844.9,391.5z"/>
			<path class="st4" d="M820.9,391.5l0.9-0.6c3.5-2.3,7.9-1.8,9.7,1l8.6,13.8c2.2,4,1.4,8.6-2.1,10.8l-0.9,0.6
				c-3.5,2.3-8.4,1-11-3.4c0,0-2.5-3.7-4.7-9.4C819.7,400.1,817.3,393.8,820.9,391.5z"/>
			<path class="st3" d="M821.2,391.3L821.2,391.3c3.2-2,7.4-1.1,9.4,2l7.9,12.7c2,3.2,1.1,7.4-2,9.4l0,0c-3.2,2-7.4,1.1-9.4-2
				l-7.9-12.7C817.1,397.5,818,393.3,821.2,391.3z"/>
			<path class="st3" d="M844.3,387L844.3,387c1.7,3.4,0.3,7.4-3.1,9.1l-14,6.8c-3.4,1.7-7.4,0.3-9.1-3.1l0,0
				c-1.7-3.4-0.3-7.4,3.1-9.1l14-6.8C838.6,382.2,842.6,383.6,844.3,387z"/>
		</g>
		<path class="st5" d="M1146.2,581.3h0.5c41.7,0,75.8-34.1,75.8-75.8v-0.2h-152v0.2C1070.5,547.2,1104.6,581.3,1146.2,581.3z"/>
		<polygon class="st5" points="1165.1,847.3 1201.5,847.3 1222.5,505.3 1160.5,505.3 		"/>
		<path class="st5" d="M1117.6,833.9l-34.9,4.8l-22.3-142.8c-3-13-3.5-26.4-1.6-39.5l11.7-151.1h63L1109.4,657
			c-2.9,12.8-3.4,25.9-1.6,38.9L1117.6,833.9z"/>
		<path class="st2" d="M1175.3,297.7h-57.7c-26,0-47.2,21.1-47.2,47.2v160.4h152V344.9C1222.5,318.8,1201.4,297.7,1175.3,297.7z"/>
		
			<rect x="1108.3" y="297.7" transform="matrix(-1 -4.478829e-11 4.478829e-11 -1 2274.6345 802.9669)" class="st6" width="58" height="207.6"/>
		<path class="st7" d="M1111.7,310.1c0,13.4,10.9,24.5,24.3,24.5h0h0.2c13.4,0,24.5-11.1,24.5-24.5v-21.5h-49V310.1z"/>
		<rect x="1111.7" y="268.5" class="st3" width="49" height="46"/>
		<path class="st0" d="M1157.7,140.7c-0.5-5.6,1.5-10.9,5.2-14.6c-0.5-1.3-0.9-2.7-1-4.1c-0.8-8.4,5.3-15.8,13.7-16.6
			c5.5-0.5,10.6,1.9,13.7,6.1c2.6-2,5.8-3.4,9.3-3.7c10-1,18.9,6.3,19.9,16.4c0.2,1.9,0.1,3.7-0.3,5.4c7.2,1.9,12.8,8.1,13.6,16
			c0.7,7.3-3,14-8.9,17.6c1.8,2.2,3,5,3.3,8.1c0.8,8.4-5.3,15.8-13.7,16.6c-7.6,0.7-14.5-4.3-16.2-11.5c-1.4,0.5-2.9,0.8-4.5,0.9
			c-11.8,1.1-22.2-7.4-23.4-19.2c-0.1-0.8-0.1-1.6-0.1-2.4C1162.6,152.9,1158.4,147.4,1157.7,140.7z"/>
		<path class="st0" d="M1029.2,172.1c0.5,5.6,3.6,10.4,7.9,13.3c-0.2,1.4-0.3,2.8-0.2,4.2c0.8,8.4,8.3,14.5,16.6,13.7
			c5.5-0.5,10-4,12.2-8.6c3,1.5,6.3,2.2,9.9,1.8c10-1,17.3-9.9,16.4-19.9c-0.2-1.9-0.6-3.6-1.3-5.2c6.7-3.3,11-10.5,10.2-18.3
			c-0.7-7.3-5.6-13.2-12.1-15.5c1.3-2.5,2-5.5,1.7-8.6c-0.8-8.4-8.3-14.5-16.6-13.7c-7.6,0.7-13.4,7-13.7,14.5c-1.5-0.2-3-0.2-4.5,0
			c-11.8,1.1-20.3,11.6-19.2,23.4c0.1,0.8,0.2,1.6,0.4,2.4C1031.6,159.1,1028.5,165.3,1029.2,172.1z"/>
		<path class="st4" d="M1160.7,284.5c-9.5,4.1-19.4,6.3-28.9,6.3c-6.6,0-13.4-1.1-20.1-3.1v-15.5h49V284.5z"/>
		<path class="st3" d="M1136.7,284c31.7-3.1,67.2-34.6,63.4-73.5L1196,168c-3.2-32.8-32.4-56.8-65.2-53.6l-21.5,2.1
			c-32.8,3.2-56.8,32.4-53.6,65.2l4.2,42.6C1063.7,263.2,1105,287.1,1136.7,284z"/>
		
			<ellipse transform="matrix(0.9953 -9.731913e-02 9.731913e-02 0.9953 -11.7333 117.383)" class="st3" cx="1197.4" cy="179" rx="20" ry="20"/>
		<path class="st8" d="M1201.7,181.4c-0.4-3.9-3.9-6.8-7.8-6.4c-1.1,0.1-2.1,0.5-2.9,1c1-2.2,3.1-3.8,5.7-4.1
			c3.9-0.4,7.4,2.5,7.8,6.4c0.3,2.8-1.1,5.4-3.4,6.8C1201.6,183.9,1201.8,182.7,1201.7,181.4z"/>
		
			<ellipse transform="matrix(0.9953 -9.731913e-02 9.731913e-02 0.9953 -12.9386 112.1386)" class="st1" cx="1143.1" cy="188.7" rx="4.6" ry="8.1"/>
		
			<ellipse transform="matrix(0.9953 -9.731913e-02 9.731913e-02 0.9953 -13.7629 106.5412)" class="st1" cx="1085.3" cy="194.4" rx="4.6" ry="8.1"/>
		<path class="st8" d="M1130.8,228.2c2.7-1,5.4,1.3,4.9,4.1c-1.3,7.3-7.1,13.3-14.9,14.6v0c-7.8,1.3-15.3-2.7-18.8-9.3
			c-1.3-2.5,0.6-5.5,3.4-5.4c3.5,0.1,8.3-0.1,13.4-0.9C1123.6,230.6,1127.8,229.3,1130.8,228.2z"/>
		<path class="st0" d="M1094.1,233c-2.1,2.8,0.4,6.7,3.8,5.8c5.9-1.5,13.7-3.2,22.8-4.1c8.2-0.8,15.2-0.8,20.5-0.5
			c3.5,0.2,5.3-4.1,2.6-6.4l-13-11.3c0,0-6.3-3.5-12.9-2.9s-13.2,5.4-13.2,5.4L1094.1,233z"/>
		<path class="st8" d="M1121.9,198.2l2,20.4c0.1,0.9-1,1.8-1.9,1.8l-12.1,1.2c-3.3,0.3-5.5-3.3-3.6-6l12.3-18.1
			C1119.5,196.1,1121.8,196.6,1121.9,198.2z"/>
		
			<ellipse transform="matrix(0.9953 -9.731913e-02 9.731913e-02 0.9953 -14.8133 111.2032)" class="st9" cx="1132.5" cy="207.5" rx="10.7" ry="10.7"/>
		<g>
			<path class="st10" d="M1127.3,198.2c1.3-0.7,2.7-1.2,4.2-1.4c5.9-0.6,11.1,3.7,11.7,9.6c0.3,2.7-0.5,5.2-2,7.3
				C1136.7,208.6,1130.7,201.9,1127.3,198.2z"/>
			<path class="st10" d="M1133.9,218c-0.1,0-0.2,0-0.3,0c-5.9,0.6-11.1-3.7-11.7-9.6c-0.1-1.2,0-2.3,0.2-3.4L1133.9,218z"/>
		</g>
		
			<ellipse transform="matrix(0.9953 -9.731913e-02 9.731913e-02 0.9953 -15.3236 107.7378)" class="st9" cx="1096.8" cy="211" rx="10.7" ry="10.7"/>
		<g>
			<path class="st10" d="M1091.4,201.7c1.3-0.7,2.7-1.2,4.2-1.4c5.9-0.6,11.1,3.7,11.7,9.6c0.3,2.7-0.5,5.2-2,7.3
				C1100.9,212.1,1094.9,205.4,1091.4,201.7z"/>
			<path class="st10" d="M1098.1,221.6c-0.1,0-0.2,0-0.3,0c-5.9,0.6-11.1-3.7-11.7-9.6c-0.1-1.2,0-2.3,0.2-3.4L1098.1,221.6z"/>
		</g>
		
			<ellipse transform="matrix(0.9953 -9.731913e-02 9.731913e-02 0.9953 -14.8133 111.2032)" class="st11" cx="1132.5" cy="207.5" rx="10.7" ry="10.7"/>
		
			<ellipse transform="matrix(0.9953 -9.731913e-02 9.731913e-02 0.9953 -15.3236 107.7378)" class="st11" cx="1096.8" cy="211" rx="10.7" ry="10.7"/>
		<path class="st11" d="M1123.2,202.2c0,0-3.9-6.3-9.8-5.7c-5.9,0.6-8.5,7.5-8.5,7.5"/>
		<path class="st2" d="M1187.7,301.5L1187.7,301.5c-9,4.9-12.3,16.1-7.4,25l65.6,120.7c4.9,9,16.1,12.3,25,7.4l0,0
			c9-4.9,12.3-16.1,7.4-25l-65.6-120.7C1207.9,299.9,1196.7,296.6,1187.7,301.5z"/>
		<g>
			<path class="st12" d="M1138.9,314.7l17.6,5.7c2.5,0.8,5.1-1,5.1-3.7v-12c0-2.6-2.6-4.5-5.1-3.7l-17.6,5.7V314.7z"/>
			<path class="st12" d="M1132.9,314.7l-17.6,5.7c-2.5,0.8-5.1-1-5.1-3.7v-12c0-2.6,2.6-4.5,5.1-3.7l17.6,5.7V314.7z"/>
			<path class="st13" d="M1133.2,316.6h6c1.7,0,3.1-1.4,3.1-3.1v-5.6c0-1.7-1.4-3.1-3.1-3.1h-6c-1.7,0-3.1,1.4-3.1,3.1v5.6
				C1130,315.2,1131.4,316.6,1133.2,316.6z"/>
		</g>
		<path class="st14" d="M1166,297.7l14.4,1.8l23.3,48.1l-18.5-3l19.2,16.6c0,0-4.6,5.5-19.2,31.5c-14.7,26-19.2,40.9-19.2,40.9
			V297.7z"/>
		
			<rect x="1166.5" y="489.4" transform="matrix(-1 -3.628487e-11 3.628487e-11 -1 2389.0364 1038.2616)" class="st2" width="55.9" height="59.5"/>
		<path class="st14" d="M1108,297.7l-14.2,1.8l-23.2,48.1l18.6-3l-19.2,16.6c0,0,4.3,5.5,19,31.5c14.7,26,19,40.9,19,40.9V297.7z"/>
		<path class="st15" d="M1117.6,833.9l9.6,36.9c0.6,2.1-0.9,4.3-3.1,4.6l-15.7,2.1c-2,0.3-3.9-1.1-4.1-3.1l-0.5-3.6
			c0,0-14,9.2-21.1,10.2c-7.2,1-22.1,2.7-31.7,4c-6.4,0.9-14.5-0.2-19.3-1c-2.3-0.4-3.9-2.5-3.7-4.8l0.7-7.3c0.6-6,5.9-10.5,12-10v0
			c4,0.3,8-0.7,11.4-2.9l30.7-20.4L1117.6,833.9z"/>
		<path class="st15" d="M1201.2,847l4.6,37.9c0.3,2.2-1.4,4.1-3.6,4.1h-15.9c-2,0-3.7-1.6-3.7-3.7v-3.6c0,0-15.1,7.3-22.3,7.3
			c-7.2,0-22.2-0.3-31.9-0.3c-6.4,0-14.4-2.2-19-3.7c-2.2-0.7-3.5-3-3-5.3l1.7-7.1c1.4-5.9,7.3-9.6,13.2-8.3l0,0
			c3.9,0.9,8,0.4,11.6-1.4L1166,847H1201.2z"/>
		
			<rect x="1070.5" y="490.1" transform="matrix(-1 -4.498059e-11 4.498059e-11 -1 2178.551 1039.6208)" class="st2" width="37.6" height="59.5"/>
		<path class="st2" d="M1249.8,450.4L1249.8,450.4c-6.6-7.8-5.7-19.4,2.1-26l99.7-85.8l23.9,28.1l-99.7,85.8
			C1268,459.1,1256.4,458.1,1249.8,450.4z"/>
		<path class="st3" d="M1367.1,322.8c-3.6,6.6-9,14.8-11.3,18.2c-0.7,1-0.6,2.3,0.2,3.2l15.4,18c0.8,0.9,2.1,1.2,3.2,0.6
			c10.2-5.3,18.8-9.3,29.3-23.3c15.1-20,12-27.5,7.8-29.5c-2.5-1.2-5,1.8-6.6,4.3c2.1-6.1-4.6-8.5-8.7-3.3
			c-0.9-0.8-5.7-4.6-10.3,3.2c-2.1,3.6-7.6,10.5-11.1,13.3c0.5-0.9,1-1.8,1.5-2.7C1380.2,318.1,1371.8,314.2,1367.1,322.8z"/>
		<path class="st16" d="M1069.7,184c0,0,6.3-5,13.3-5.9s12.2,1.2,12.2,1.2"/>
		<path class="st16" d="M1153.9,173.7c0,0-7.4-3.3-14.3-2.5c-7,0.9-11.6,4.1-11.6,4.1"/>
	</g>
	<g>
		<path class="st15" d="M1000.4,711.8H866.7c-22.9,0-45.9,4.7-57.8-27.5l-27.3-56.4h213l24,48.8C1026,692.5,1016,711.8,1000.4,711.8
			z"/>
		<path class="st15" d="M994.6,627.8h-213V452.4c0-28.4,23-51.4,51.4-51.4h110.2c28.4,0,51.4,23,51.4,51.4V627.8z"/>
		<path class="st17" d="M774.7,576.5l1.9,0.5c9.3,2.6,19.5-4.9,22.7-16.8L847.7,447c3.3-11.8,1.9-24.2-7.4-26.8l-1.9-0.5
			c-13.5-3.6-19.5-0.2-52.6,70.2l-23.1,60.6C759.5,562.2,765.4,573.9,774.7,576.5z"/>
		<path class="st18" d="M906.9,692.5L906.9,692.5c-38.3,0-67.1-11.8-87.1-44.5l-14.3-23.4h152l0,0
			C957.6,661.1,945.9,692.5,906.9,692.5z"/>
		<path class="st18" d="M1021.1,842.7h-36.4l-15.9-151.4l-24.1,0.8c-36.1,0.8-65.7-28.2-65.7-64.3v0h62l52.7,8.4
			c25.1,4,42.2,27.6,38.2,52.7L1021.1,842.7z"/>
		<path class="st17" d="M912,426.9L912,426.9c-6.7,7.6-6,19.3,1.6,26l90,79.5c7.6,6.7,19.3,6,26-1.6h0c6.7-7.6,6-19.3-1.6-26
			l-90-79.5C930.4,418.5,918.8,419.3,912,426.9z"/>
		<path class="st18" d="M959.4,842.7H923l-21.5-151.4l-24.1,0.8c-36.1,0.8-65.7-28.2-65.7-64.3v0h62l52.7,8.4
			c25.1,4,42.2,27.6,38.2,52.7L959.4,842.7z"/>
		<path class="st19" d="M852.7,417.2h57.7c26,0,47.2,21.1,47.2,47.2v160.4h-152V464.4C805.6,438.3,826.7,417.2,852.7,417.2z"/>
		<path class="st3" d="M921.4,435.4c0,13.4-10.9,24.5-24.3,24.5h0h-0.2c-13.4,0-24.5-11.1-24.5-24.5v-30.1h49V435.4z"/>
		<path class="st4" d="M872.4,419.8c9.5,4.1,19.4,6.3,28.9,6.3c6.6,0,13.4-1.1,20.1-3.1v-15.5h-49V419.8z"/>
		<path class="st3" d="M902.7,414.9c-28.9,0-63.6-25.2-63.6-60.6v-38.7c0-29.8,24.2-54,54-54h19.6c29.8,0,54,24.2,54,54v38.7
			C966.6,389.7,931.5,414.9,902.7,414.9z"/>
		<circle class="st3" cx="838.8" cy="325.6" r="18.1"/>
		<path class="st8" d="M835.1,328.2c0-3.5,2.9-6.4,6.4-6.4c1,0,1.9,0.2,2.7,0.6c-1.1-1.9-3.2-3.2-5.5-3.2c-3.5,0-6.4,2.9-6.4,6.4
			c0,2.6,1.5,4.8,3.7,5.8C835.5,330.5,835.1,329.4,835.1,328.2z"/>
		<ellipse class="st1" cx="892" cy="331.4" rx="4.2" ry="7.3"/>
		<ellipse class="st1" cx="944.6" cy="331.4" rx="4.2" ry="7.3"/>
		<path class="st8" d="M897.3,364.5c0,11.3,9.2,20.4,20.4,20.4h0c11.3,0,20.4-9.2,20.4-20.4"/>
		<path class="st8" d="M911.9,338.1v18.5c0,0.8,1,1.5,1.9,1.5h11c3,0,4.6-3.5,2.7-5.8l-12.7-15.2
			C913.9,336.1,911.9,336.7,911.9,338.1z"/>
		<path class="st20" d="M985,842.5l-4.6,37.9c-0.3,2.2,1.4,4.1,3.6,4.1h15.9c2,0,3.7-1.6,3.7-3.7v-3.6c0,0,15.1,7.3,22.3,7.3
			c7.2,0,22.2-0.3,31.9-0.3c6.4,0,14.4-2.2,19-3.7c2.2-0.7,3.5-3,3-5.3l-1.7-7.1c-1.4-5.9-7.3-9.6-13.2-8.3l0,0
			c-3.9,0.9-8,0.4-11.6-1.4l-33.1-16.1H985z"/>
		<path class="st15" d="M923.4,842.5l-4.6,37.9c-0.3,2.2,1.4,4.1,3.6,4.1h15.9c2,0,3.7-1.6,3.7-3.7v-3.6c0,0,15.1,7.3,22.3,7.3
			s22.2-0.3,31.9-0.3c6.4,0,14.4-2.2,19-3.7c2.2-0.7,3.5-3,3-5.3l-1.7-7.1c-1.4-5.9-7.3-9.6-13.2-8.3l0,0c-3.9,0.9-8,0.4-11.6-1.4
			l-33.1-16.1H923.4z"/>
		<path class="st19" d="M760.9,576.3L760.9,576.3c8.9,5,20.1,1.9,25.2-6.9L844.9,466l-32.1-18.3L754,551.1
			C749,560,752.1,571.2,760.9,576.3z"/>
		<path class="st19" d="M1034.5,592.5L1034.5,592.5c-9.9,2.4-19.9-3.7-22.3-13.6l-27.9-115.6l35.9-8.6l27.9,115.6
			C1050.5,580.2,1044.4,590.1,1034.5,592.5z"/>
		<g>
			<path class="st3" d="M813.7,471.9L813.7,471.9c2.1,2.5,5.9,2.8,8.4,0.7l20.7-17.6c2.5-2.1,2.8-5.9,0.7-8.4l0,0
				c-2.1-2.5-5.9-2.8-8.4-0.7l-20.7,17.6C811.8,465.7,811.5,469.4,813.7,471.9z"/>
			<polygon class="st21" points="839.2,390 924.5,418.8 998.7,390 1008.9,399.4 998,536.1 939,564.5 939,536.6 924.5,541.4 
				910,536.6 910,564.5 840,536.1 829,399.4 			"/>
			<path class="st3" d="M1019.6,471.9L1019.6,471.9c-2.1,2.5-5.9,2.8-8.4,0.7L990.5,455c-2.5-2.1-2.8-5.9-0.7-8.4l0,0
				c2.1-2.5,5.9-2.8,8.4-0.7l20.7,17.6C1021.4,465.7,1021.7,469.4,1019.6,471.9z"/>
			<polygon class="st22" points="834.1,539.7 909.1,569.7 909.1,424.7 823.1,394.7 			"/>
			<polygon class="st22" points="1003.9,539.7 939.8,569.7 939.8,424.7 1014.9,394.7 			"/>
			
				<rect x="909.1" y="424.7" transform="matrix(-1 4.495725e-11 -4.495725e-11 -1 1848.9446 994.4337)" class="st23" width="30.7" height="144.9"/>
			<path class="st3" d="M818.3,509.5l9.6,0.1c4.1,0.1,7.5-3.2,7.6-7.4l0.5-32.5c0.1-4.1-3.2-7.5-7.4-7.6l-9.6-0.1
				c-4.4-0.1-8,3.4-8.1,7.8l-0.5,31.6C810.4,505.8,813.9,509.5,818.3,509.5z"/>
			<path class="st3" d="M818.2,468L818.2,468c0,3.3,2.6,6,5.8,6l27.2,0.4c3.3,0,6-2.6,6-5.8v0c0-3.3-2.6-6-5.8-6l-27.2-0.4
				C820.9,462.1,818.2,464.7,818.2,468z"/>
			<path class="st3" d="M823.3,479.9L823.3,479.9c0,3.3,2.6,6,5.8,6l27.2,0.4c3.3,0,6-2.6,6-5.8l0,0c0-3.3-2.6-6-5.8-6l-27.2-0.4
				C826.1,474,823.4,476.6,823.3,479.9z"/>
			<path class="st3" d="M820.2,491.7L820.2,491.7c0,3.3,2.6,6,5.8,6l27.2,0.4c3.3,0,6-2.6,6-5.8l0,0c0-3.3-2.6-6-5.8-6l-27.2-0.4
				C822.9,485.8,820.2,488.4,820.2,491.7z"/>
			<path class="st3" d="M815.6,503.5L815.6,503.5c0,3.3,2.6,6,5.8,6l27.2,0.4c3.3,0,6-2.6,6-5.8l0,0c0-3.3-2.6-6-5.8-6l-27.2-0.4
				C818.4,497.6,815.7,500.2,815.6,503.5z"/>
			<path class="st3" d="M1014.9,509.5l-9.6,0.1c-4.1,0.1-7.5-3.2-7.6-7.4l-0.5-32.5c-0.1-4.1,3.2-7.5,7.4-7.6l9.6-0.1
				c4.4-0.1,8,3.4,8.1,7.8l0.5,31.6C1022.8,505.8,1019.3,509.5,1014.9,509.5z"/>
			<path class="st3" d="M1015.1,468L1015.1,468c0,3.3-2.6,6-5.8,6l-27.2,0.4c-3.3,0-6-2.6-6-5.8v0c0-3.3,2.6-6,5.8-6l27.2-0.4
				C1012.3,462.1,1015,464.7,1015.1,468z"/>
			<path class="st3" d="M1009.9,479.9L1009.9,479.9c0,3.3-2.6,6-5.8,6l-27.2,0.4c-3.3,0-6-2.6-6-5.8l0,0c0-3.3,2.6-6,5.8-6l27.2-0.4
				C1007.2,474,1009.9,476.6,1009.9,479.9z"/>
			<path class="st3" d="M1013.1,491.7L1013.1,491.7c0,3.3-2.6,6-5.8,6l-27.2,0.4c-3.3,0-6-2.6-6-5.8l0,0c0-3.3,2.6-6,5.8-6l27.2-0.4
				C1010.3,485.8,1013,488.4,1013.1,491.7z"/>
			<path class="st3" d="M1017.6,503.5L1017.6,503.5c0,3.3-2.6,6-5.8,6l-27.2,0.4c-3.3,0-6-2.6-6-5.8l0,0c0-3.3,2.6-6,5.8-6l27.2-0.4
				C1014.9,497.6,1017.6,500.2,1017.6,503.5z"/>
			<ellipse class="st23" cx="924.5" cy="426.5" rx="15.3" ry="10.6"/>
		</g>
		<path class="st24" d="M838.8,307.8c0,0,11.4,3.3,28.4-8c12.2-8.1,16-21.7,16-21.7s12.5,22.6,40.5,29.4c28,6.7,42.7,0.1,42.7,0.1
			s10.6-10.3,6-32.4c-5.4-25.4-22-40.3-52.3-40.3s-39.3,15.3-39.3,15.3s-8.8-6.5-23.9-4.6c-16.9,2.1-43.1,23-27.1,64.2
			c0,0,1.7-1.1,4.6-1.8C837.3,307.3,838.8,307.8,838.8,307.8z"/>
	</g>
	<path class="st25" d="M1210.9,646.7H512.1c-5.5,0-10-4.5-10-10v-96.9c0-5.5,4.5-10,10-10h698.9c5.5,0,10,4.5,10,10v96.9
		C1220.9,642.3,1216.4,646.7,1210.9,646.7z"/>
	<path class="st26" d="M1220.9,554.8H502.1v-15c0-5.5,4.5-10,10-10h698.9c5.5,0,10,4.5,10,10V554.8z"/>
	<g>
		
			<rect x="683.6" y="370.7" transform="matrix(4.478444e-11 1 -1 4.478444e-11 1141.1649 -263.5724)" class="st27" width="37.5" height="136.1"/>
		
			<rect x="698.1" y="385.2" transform="matrix(4.453042e-11 1 -1 4.453042e-11 1155.6406 -249.0968)" class="st28" width="8.6" height="136.1"/>
		
			<rect x="729.2" y="428.1" transform="matrix(4.478444e-11 1 -1 4.478444e-11 1186.7234 -309.1308)" class="st29" width="37.5" height="21.4"/>
		
			<rect x="662.9" y="327.8" transform="matrix(4.481286e-11 1 -1 4.481286e-11 1082.9756 -281.5141)" class="st30" width="38.6" height="145.8"/>
		
			<rect x="678" y="342.8" transform="matrix(4.431814e-11 1 -1 4.431814e-11 1097.9873 -266.5023)" class="st31" width="8.6" height="145.8"/>
		
			<rect x="621.7" y="390" transform="matrix(4.354010e-11 1 -1 4.354010e-11 1041.6858 -240.2243)" class="st32" width="38.6" height="21.4"/>
		<rect x="620.6" y="381.4" class="st32" width="3.2" height="38.6"/>
		
			<rect x="717.6" y="392.2" transform="matrix(4.509530e-11 1 -1 4.509530e-11 1137.6458 -336.1842)" class="st32" width="38.6" height="17.2"/>
		<rect x="727.6" y="420" class="st29" width="3.2" height="37.5"/>
		
			<rect x="662.9" y="404" transform="matrix(4.490079e-11 1 -1 4.490079e-11 1154.8182 -205.3837)" class="st33" width="34.3" height="141.5"/>
		
			<rect x="675.8" y="416.8" transform="matrix(4.431814e-11 1 -1 4.431814e-11 1167.6854 -192.5164)" class="st34" width="8.6" height="141.5"/>
		<path class="st35" d="M643.1,484.4c-5.6,0-10.2-4.6-10.2-10.2l0,0c0-5.6,4.6-10.2,10.2-10.2h83.6c5.6,0,10.2,4.6,10.2,10.2l0,0
			c0,5.6-4.6,10.2-10.2,10.2H643.1z"/>
		<path class="st29" d="M666.5,449.8V430c0-0.7,0.6-1.3,1.3-1.3h35.9c0.7,0,1.3,0.6,1.3,1.3v19.8c0,0.7-0.6,1.3-1.3,1.3h-35.9
			C667.1,451.1,666.5,450.5,666.5,449.8z"/>
		
			<rect x="676.1" y="442.8" transform="matrix(1.107873e-03 1 -1 1.107873e-03 1204.9426 -184.6834)" class="st36" width="37.7" height="136.1"/>
		
			<rect x="690.3" y="457" transform="matrix(1.107873e-03 1 -1 1.107873e-03 1219.2183 -170.4551)" class="st37" width="9.2" height="136.1"/>
		
			<rect x="747" y="492" transform="matrix(1 -1.107873e-03 1.107873e-03 1 -0.5654 0.8297)" class="st38" width="3.2" height="37.5"/>
		
			<rect x="739.4" y="492" transform="matrix(1 -1.107873e-03 1.107873e-03 1 -0.5654 0.8212)" class="st38" width="3.2" height="37.5"/>
		<ellipse class="st32" cx="705.9" cy="400.8" rx="10.9" ry="10.9"/>
		<path class="st38" d="M658.3,518.7l0-14.6c0-1,0.8-1.8,1.8-1.8l64.2-0.1c1,0,1.8,0.8,1.8,1.8l0,14.6c0,1-0.8,1.8-1.8,1.8
			l-64.2,0.1C659.1,520.5,658.3,519.7,658.3,518.7z"/>
		<path class="st39" d="M683.9,324.2c0,0-4.3,5-10.5,4.6c-6.2-0.4-10.4-6.1-10.4-6.1s4.2-5.2,11.1-4.7S683.9,324.2,683.9,324.2z"/>
		<path class="st40" d="M683.9,324.2c0,0-5.9,1.7-10.3-2.7s-4.6-12-4.6-12s7.2-0.6,12.2,4.3C686.2,318.7,683.9,324.2,683.9,324.2z"
			/>
		<path class="st41" d="M684.9,339.1c0,0-1.1-3,0-10.4c1.1-7.5,4.3-11.5,4.3-11.5"/>
		<path class="st42" d="M712.1,353.3c-0.5-8.8-5-15.7-14.3-17.9c-7.8-1.9-7.4,4.5-12.8,4.5c-5.4,0-5.1-6.3-12.8-4.5
			c-9.3,2.2-13.8,9.1-14.3,17.9c-0.5,8.8,10.8,38.5,25.2,26.4v0.2c0,0,0.8-0.8,2-0.9c1.1,0.1,2,0.9,2,0.9v-0.2
			C701.3,391.9,712.6,362.1,712.1,353.3z"/>
		<path class="st27" d="M712.1,350.7c-0.5-8.8-5-15.7-14.3-17.9c-7.8-1.9-7.4,4.5-12.8,4.5c-5.4,0-5.1-6.3-12.8-4.5
			c-9.3,2.2-13.8,9.1-14.3,17.9c-0.5,8.8,10.8,38.5,25.2,26.4v0.2c0,0,0.8-0.8,2-0.9c1.1,0.1,2,0.9,2,0.9v-0.2
			C701.3,389.2,712.6,359.5,712.1,350.7z"/>
		<g>
			<path class="st43" d="M712.1,350.7c-0.5-8.8-5-15.7-14.3-17.9c-4.8-1.2-6.5,0.8-8.4,2.5c1.1-0.3,2.5-0.3,4.4,0.1
				c5.8,1.3,10.8,4.3,14,12.5c2,5.2,2.5,12.6,2.5,12.6S712.3,354,712.1,350.7z"/>
		</g>
	</g>
	<g>
		<path class="st7" d="M635.7,522.7h-96.3c-7.9,0-14.3-6.4-14.3-14.3v0c0-7.9,6.4-14.3,14.3-14.3h96.3c0,0-5.2,5.5-5.2,14.3
			C630.5,517.2,635.7,522.7,635.7,522.7z"/>
		<g>
			<path class="st44" d="M635.1,522.7h0.6c0,0-0.4-0.5-1-1.3C634.8,521.9,634.9,522.3,635.1,522.7z"/>
			<path class="st44" d="M528.1,514.6L528.1,514.6c0-7.9,6.4-14.3,14.3-14.3h89.6c1.5-3.9,3.6-6.1,3.6-6.1h-96.3
				c-7.9,0-14.3,6.4-14.3,14.3c0,3.5,1.3,6.8,3.4,9.2C528.3,516.7,528.1,515.6,528.1,514.6z"/>
		</g>
		<path class="st27" d="M539.4,522.7c-7.9,0-14.3-6.4-14.3-14.3c0-7.9,6.4-14.3,14.3-14.3h101.5V488H536.8
			c-11.3,0-20.4,9.1-20.4,20.4c0,11.3,9.1,20.4,20.4,20.4h104.1v-6.1H539.4z"/>
		<path class="st7" d="M544,481.9h73.9c7.9,0,14.3-6.4,14.3-14.3v0c0-7.9-6.4-14.3-14.3-14.3H544c0,0,5.2,5.5,5.2,14.3
			S544,481.9,544,481.9z"/>
		<g>
			<path class="st44" d="M544.6,481.9H544c0,0,0.4-0.5,1-1.3C544.9,481,544.8,481.5,544.6,481.9z"/>
			<path class="st44" d="M629.2,473.7L629.2,473.7c0-7.9-6.4-14.3-14.3-14.3h-67.2c-1.5-3.9-3.6-6.1-3.6-6.1h73.9
				c7.9,0,14.3,6.4,14.3,14.3c0,3.5-1.3,6.8-3.4,9.2C629.1,475.8,629.2,474.8,629.2,473.7z"/>
		</g>
		<path class="st30" d="M617.9,481.9c7.9,0,14.3-6.4,14.3-14.3c0-7.9-6.4-14.3-14.3-14.3h-79.2v-6.1h81.7c11.3,0,20.4,9.1,20.4,20.4
			c0,11.3-9.1,20.4-20.4,20.4h-81.7v-6.1H617.9z"/>
		<polygon class="st45" points="576.9,475.6 568.4,470.5 559.9,475.6 559.9,459.6 576.9,459.6 		"/>
	</g>
	<rect x="556.2" y="646.7" class="st15" width="22.1" height="279.8"/>
	<rect x="1144.6" y="646.7" class="st15" width="22.1" height="279.8"/>
</g>
</svg>
